<svg width="85" height="85" viewBox="0 0 85 85" fill="none" xmlns="http://www.w3.org/2000/svg">
<g clip-path="url(#clip0_15_122)">
<path d="M43.1792 26.6456H41.1548V0H43.1792V26.6456ZM39.8577 26.8467L34.3102 0.787037L32.3296 1.20679L37.8859 27.2752L39.8665 26.8555L39.8577 26.8467ZM36.6589 27.7387L25.7918 3.40175L23.9427 4.22377L34.801 28.5694L36.6502 27.7474L36.6589 27.7387ZM33.7143 29.2778L18.0096 7.72171L16.3708 8.91101L32.0667 30.4671L33.7055 29.2778H33.7143ZM31.1465 31.394L11.3053 13.5633L9.9469 15.0674L29.7881 32.8981L31.1465 31.394ZM29.0783 33.9913L5.95061 20.6641L4.93401 22.4131L28.0617 35.7402L29.0783 33.9825V33.9913ZM27.5972 36.9645L2.19971 28.7269L1.56872 30.6507L26.9662 38.8796L27.5884 36.9558L27.5972 36.9645ZM26.7646 40.1739L0.210331 37.3843L0 39.3956L26.5543 42.1764L26.7646 40.1651V40.1739ZM26.8347 45.4995L26.6244 43.4882L0.0701103 46.2778L0.280441 48.2891L26.8347 45.4995ZM27.7987 48.6826L27.1765 46.7587L1.77905 54.9964L2.41004 56.9203L27.8075 48.6826H27.7987ZM29.4113 51.5947L28.3947 49.8457L5.26704 63.1641L6.28364 64.9131L29.4113 51.5859V51.5947ZM31.5935 54.1132L30.2351 52.6091L10.3939 70.4398L11.7522 71.9439L31.5935 54.1132ZM34.2489 56.1245L32.6101 54.9352L16.9141 76.4913L18.5529 77.6806L34.2489 56.1245ZM37.2636 57.5412L35.4145 56.7191L24.5561 81.0561L26.4053 81.8781L37.2636 57.5412ZM40.5062 58.302L38.5256 57.8822L32.9694 83.9419L34.95 84.3616L40.5062 58.302ZM43.8365 58.3632H41.812V85.0087H43.8365V58.3632ZM52.6616 83.7932L47.1141 57.7335L45.1335 58.1533L50.681 84.213L52.6616 83.7932ZM61.0398 80.785L50.1815 56.448L48.3323 57.2701L59.1906 81.607L61.0398 80.785ZM68.6117 76.0977L52.9158 54.5417L51.2769 55.731L66.9729 77.287L68.6117 76.0977ZM75.0443 69.9414L55.2031 52.1106L53.8447 53.6147L73.686 71.4455L75.0443 69.9414ZM80.0485 62.5869L56.9296 49.2685L55.913 51.0175L79.0319 64.3447L80.0485 62.5869ZM83.4138 54.358L58.0251 46.1204L57.3941 48.0442L82.7915 56.2819L83.4138 54.358ZM84.9912 45.6132L58.437 42.8236L58.2266 44.8349L84.7809 47.6245L84.9912 45.6132ZM84.9211 38.7397L84.7108 36.7284L58.1565 39.5093L58.3668 41.5206L84.9211 38.7397ZM83.2122 30.0211L82.59 28.0972L57.1925 36.3261L57.8147 38.25L83.2122 30.0211ZM79.7154 21.8447L78.6988 20.0957L55.58 33.4141L56.5966 35.1631L79.7154 21.8447ZM74.5974 14.5777L73.239 13.0736L53.3978 30.8956L54.7562 32.3997L74.5974 14.5777ZM68.0771 8.52623L66.4383 7.33693L50.7423 28.893L52.3812 30.0823L68.0771 8.52623ZM60.4351 3.96142L58.5859 3.1394L47.7276 27.4763L49.5768 28.2984L60.4351 3.96142ZM52.0131 1.08436L50.0325 0.664609L44.4762 26.7243L46.4568 27.144L52.0219 1.07562L52.0131 1.08436Z" fill="#FF0000"/>
</g>
<defs>
<clipPath id="clip0_15_122">
<rect width="85" height="85" fill="white"/>
</clipPath>
</defs>
</svg>
